<svg xmlns="http://www.w3.org/2000/svg" width="670" height="436" viewBox="0 0 670 436">
  <g id="Rechteck_115" data-name="Rechteck 115" fill="#fff" stroke="#e4e4e4" stroke-width="1">
    <rect width="670" height="436" rx="16" stroke="none"/>
    <rect x="0.5" y="0.5" width="669" height="435" rx="15.5" fill="none"/>
  </g>
  <g id="Gruppe_181" data-name="Gruppe 181" transform="translate(-784 -63)">
    <g id="Rechteck_105" data-name="Rechteck 105" transform="translate(818 220)" fill="none" stroke="#c6c6c6" stroke-width="1">
      <rect width="602" height="48" rx="3" stroke="none"/>
      <rect x="0.5" y="0.5" width="601" height="47" rx="2.5" fill="none"/>
    </g>
    <text id="CiteDrive" transform="translate(836 249)" fill="#2f2f2f" font-size="16" font-family="HelveticaNeue-Medium, Helvetica Neue" font-weight="500"><tspan x="0" y="0">CiteDrive</tspan></text>
  </g>
  <rect id="Rechteck_116" data-name="Rechteck 116" width="602" height="52" rx="7" transform="translate(34 333)" fill="#1b90b4"/>
  <text id="Create_new_project_" data-name="Create new project
" transform="translate(265 363)" fill="#fff" font-size="16" font-family="HelveticaNeue-Medium, Helvetica Neue" font-weight="500"><tspan x="0" y="0">Create new project</tspan><tspan x="0" y="19"></tspan></text>
  <g id="Gruppe_169" data-name="Gruppe 169" transform="translate(-870 -28.5)">
    <line id="Linie_15" data-name="Linie 15" x2="16.5" y2="16.5" transform="translate(1489.5 79.5)" fill="none" stroke="#2f2f2f" stroke-linecap="round" stroke-width="3"/>
    <line id="Linie_16" data-name="Linie 16" x1="16.5" y2="16.5" transform="translate(1489.5 79.5)" fill="none" stroke="#2f2f2f" stroke-linecap="round" stroke-width="3"/>
  </g>
  <path id="Differenzmenge_7" data-name="Differenzmenge 7" d="M8.5,8h0L0,0H2.267L8.5,5.867,14.734,0H17L8.5,8Z" transform="translate(600 177)" fill="#2f2f2f"/>
  <g id="Gruppe_220" data-name="Gruppe 220" transform="translate(-784 6)">
    <g id="Rechteck_105-2" data-name="Rechteck 105" transform="translate(818 220)" fill="none" stroke="#c6c6c6" stroke-width="1">
      <rect width="602" height="48" rx="3" stroke="none"/>
      <rect x="0.5" y="0.5" width="601" height="47" rx="2.5" fill="none"/>
    </g>
  </g>
  <text id="Let_s_create_a_new_project" data-name="Let’s create a new project" transform="translate(34 77)" fill="#2f2f2f" font-size="27" font-family="HelveticaNeue-Medium, Helvetica Neue" font-weight="500"><tspan x="0" y="0">Let’s create a new project</tspan></text>
  <text id="Choose_a_name_for_your_first_project._This_can_be_the_title_of_your_paper_thesis_or_similar." data-name="Choose a name for your first project. This can be the title of your paper,
thesis or similar." transform="translate(34 114)" fill="#2f2f2f" font-size="17" font-family="HelveticaNeue-Medium, Helvetica Neue" font-weight="500"><tspan x="0" y="0">Choose a name for your first project. This can be the title of your paper, </tspan><tspan x="0" y="21">thesis or similar.</tspan></text>
  <g id="Gruppe_266" data-name="Gruppe 266" transform="translate(-784 -63)">
    <g id="Rechteck_105-3" data-name="Rechteck 105" transform="translate(818 220)" fill="none" stroke="#c6c6c6" stroke-width="1">
      <rect width="602" height="48" rx="3" stroke="none"/>
      <rect x="0.5" y="0.5" width="601" height="47" rx="2.5" fill="none"/>
    </g>
    <text id="CiteDrive-2" data-name="CiteDrive" transform="translate(836 249)" fill="#2f2f2f" font-size="16" font-family="HelveticaNeue-Medium, Helvetica Neue" font-weight="500"><tspan x="0" y="0">CiteDrive</tspan></text>
  </g>
  <text id="My_first_project" data-name="My first project" transform="translate(51 257)" fill="#2f2f2f" font-size="16" font-family="HelveticaNeue-Medium, Helvetica Neue" font-weight="500"><tspan x="0" y="0">My first project</tspan></text>
</svg>
