
        <svg xmlns="http://www.w3.org/2000/svg" xmlns:xlink="http://www.w3.org/1999/xlink" width="808" height="809" viewBox="0 0 808 809">
        <defs>
        <filter id="Rechteck_139" x="1" y="0" width="807" height="809" filterUnits="userSpaceOnUse">
        <feOffset dx="3" dy="1" input="SourceAlpha"/>
        <feGaussianBlur stdDeviation="1.5" result="blur"/>
        <feFlood flood-color="#999" flood-opacity="0.749"/>
        <feComposite operator="in" in2="blur"/>
        <feComposite in="SourceGraphic"/>
        </filter>
        <filter id="Rechteck_141" x="0" y="0" width="807" height="123" filterUnits="userSpaceOnUse">
        <feOffset dx="1" dy="1" input="SourceAlpha"/>
        <feGaussianBlur stdDeviation="1.5" result="blur-2"/>
        <feFlood flood-color="#c9c9c9" flood-opacity="0.749"/>
        <feComposite operator="in" in2="blur-2"/>
        <feComposite in="SourceGraphic"/>
        </filter>
        <filter id="Rechteck_142" x="22.451" y="139.691" width="648.154" height="139.723" filterUnits="userSpaceOnUse">
        <feOffset dx="1" dy="1" input="SourceAlpha"/>
        <feGaussianBlur stdDeviation="1.5" result="blur-3"/>
        <feFlood flood-color="#c9c9c9" flood-opacity="0.749"/>
        <feComposite operator="in" in2="blur-3"/>
        <feComposite in="SourceGraphic"/>
        </filter>
        <filter id="Rechteck_146" x="22.846" y="295.38" width="648.154" height="139.723" filterUnits="userSpaceOnUse">
        <feOffset dx="1" dy="1" input="SourceAlpha"/>
        <feGaussianBlur stdDeviation="1.5" result="blur-4"/>
        <feFlood flood-color="#c9c9c9" flood-opacity="0.749"/>
        <feComposite operator="in" in2="blur-4"/>
        <feComposite in="SourceGraphic"/>
        </filter>
        <filter id="Rechteck_150" x="22.846" y="450.38" width="648.154" height="139.723" filterUnits="userSpaceOnUse">
        <feOffset dx="1" dy="1" input="SourceAlpha"/>
        <feGaussianBlur stdDeviation="1.5" result="blur-5"/>
        <feFlood flood-color="#c9c9c9" flood-opacity="0.749"/>
        <feComposite operator="in" in2="blur-5"/>
        <feComposite in="SourceGraphic"/>
        </filter>
        </defs>
        <g id="Gruppe_306" data-name="Gruppe 306" transform="translate(3.5 2.5)">
        <g transform="matrix(1, 0, 0, 1, -3.5, -2.5)" filter="url(#Rechteck_139)">
        <rect id="Rechteck_139-2" data-name="Rechteck 139" width="798" height="800" transform="translate(2.5 3.5)" fill="#f8f8f8"/>
        </g>
        <rect id="Rechteck_140" data-name="Rechteck 140" width="800.248" height="114" transform="translate(799.617 0) rotate(90)" fill="#fff"/>
        <g id="Gruppe_303" data-name="Gruppe 303">
        <circle id="Ellipse_51" data-name="Ellipse 51" cx="37" cy="37" r="37" transform="translate(705.617 422.498)" fill="#0058ff"/>
        <g id="Gruppe_302" data-name="Gruppe 302">
          <line id="Linie_16" data-name="Linie 16" y2="32.54" transform="translate(742.617 443.228)" fill="#0058ff" stroke="#fff" stroke-linecap="round" stroke-linejoin="round" stroke-width="5"/>
          <line id="Linie_17" data-name="Linie 17" x1="32.438" transform="translate(726.398 459.498)" fill="#0058ff" stroke="#fff" stroke-linecap="round" stroke-linejoin="round" stroke-width="5"/>
        </g>
        </g>
        <g transform="matrix(1, 0, 0, 1, -3.5, -2.5)" filter="url(#Rechteck_141)">
        <rect id="Rechteck_141-2" data-name="Rechteck 141" width="798" height="114" transform="translate(3.5 3.5)" fill="#fff"/>
        </g>
        <g transform="matrix(1, 0, 0, 1, -3.5, -2.5)" filter="url(#Rechteck_142)">
        <rect id="Rechteck_142-2" data-name="Rechteck 142" width="639.154" height="130.723" rx="8.148" transform="translate(25.95 143.19)" fill="#fff"/>
        </g>
        <rect id="Rechteck_143" data-name="Rechteck 143" width="372.964" height="32" rx="16" transform="translate(36.222 163.191)" fill="#333"/>
        <rect id="Rechteck_144" data-name="Rechteck 144" width="111.316" height="32" rx="16" transform="translate(538.863 163.191)" fill="#333"/>
        <rect id="Rechteck_145" data-name="Rechteck 145" width="229.517" height="24" rx="12" transform="translate(36.222 222.691)" fill="#333"/>
        <g transform="matrix(1, 0, 0, 1, -3.5, -2.5)" filter="url(#Rechteck_146)">
        <rect id="Rechteck_146-2" data-name="Rechteck 146" width="639.154" height="130.723" rx="8.148" transform="translate(26.35 298.88)" fill="#fff"/>
        </g>
        <rect id="Rechteck_147" data-name="Rechteck 147" width="372.964" height="32" rx="16" transform="translate(36.617 318.88)" fill="#333"/>
        <rect id="Rechteck_148" data-name="Rechteck 148" width="111.316" height="32" rx="16" transform="translate(539.258 318.88)" fill="#333"/>
        <rect id="Rechteck_149" data-name="Rechteck 149" width="229.517" height="24" rx="12" transform="translate(36.617 378.38)" fill="#333"/>
        <g transform="matrix(1, 0, 0, 1, -3.5, -2.5)" filter="url(#Rechteck_150)">
        <rect id="Rechteck_150-2" data-name="Rechteck 150" width="639.154" height="130.723" rx="8.148" transform="translate(26.35 453.88)" fill="#fff"/>
        </g>
        <rect id="Rechteck_151" data-name="Rechteck 151" width="372.964" height="32" rx="16" transform="translate(36.617 473.88)" fill="#333"/>
        <rect id="Rechteck_152" data-name="Rechteck 152" width="111.316" height="32" rx="16" transform="translate(539.258 473.88)" fill="#333"/>
        <rect id="Rechteck_153" data-name="Rechteck 153" width="229.517" height="24" rx="12" transform="translate(36.617 533.38)" fill="#333"/>
        <text id="English_USA_" data-name="English (USA)" transform="translate(42.213 48.606)" fill="#666" font-size="26" font-family="AcuminPro-Semibold, Acumin Pro" font-weight="600"><tspan x="0" y="19">English (USA)</tspan></text>
        <text id="Molecular Psychiat ..." transform="translate(310.212 48.819)" fill="#666" font-size="26" font-family="AcuminPro-Semibold, Acumin Pro" font-weight="600"><tspan x="0" y="19">Molecular Psychiat ...</tspan></text>
        <rect id="Rechteck_154" data-name="Rechteck 154" width="316" height="60.813" rx="11.911" transform="translate(293.499 27.48)" fill="none" stroke="#0058ff" stroke-miterlimit="10" stroke-width="1"/>
        <rect id="Rechteck_155" data-name="Rechteck 155" width="316" height="330.655" rx="11.911" transform="translate(294.28 99.5)" fill="#fff" stroke="#b3b3b3" stroke-miterlimit="10" stroke-width="1"/>
        <path id="Rechteck_156" data-name="Rechteck 156" d="M11.911,0H304.089A11.911,11.911,0,0,1,316,11.911V55.55a0,0,0,0,1,0,0H0a0,0,0,0,1,0,0V11.911A11.911,11.911,0,0,1,11.911,0Z" transform="translate(294.28 99.5)" fill="#fff" stroke="#b3b3b3" stroke-miterlimit="10" stroke-width="1"/>
        <path id="Rechteck_157" data-name="Rechteck 157" d="M11.911,0H304.089A11.911,11.911,0,0,1,316,11.911V55.55a0,0,0,0,1,0,0H0a0,0,0,0,1,0,0V11.911A11.911,11.911,0,0,1,11.911,0Z" transform="translate(610.28 430.155) rotate(180)" fill="#fff" stroke="#b3b3b3" stroke-miterlimit="10" stroke-width="1"/>
        <rect id="Rechteck_158" data-name="Rechteck 158" width="316" height="55.55" transform="translate(294.28 154.572)" fill="#fff" stroke="#b3b3b3" stroke-miterlimit="10" stroke-width="1"/>
        <rect id="Rechteck_159" data-name="Rechteck 159" width="316" height="55.55" transform="translate(294.28 209.19)" fill="#fff" stroke="#b3b3b3" stroke-miterlimit="10" stroke-width="1"/>
        <rect id="Rechteck_160" data-name="Rechteck 160" width="316" height="55.55" transform="translate(294.28 264.7)" fill="#fff" stroke="#b3b3b3" stroke-miterlimit="10" stroke-width="1"/>
        <rect id="Rechteck_161" data-name="Rechteck 161" width="316" height="55.55" transform="translate(294.28 319.132)" fill="#fff" stroke="#b3b3b3" stroke-miterlimit="10" stroke-width="1"/>
        <rect id="Rechteck_162" data-name="Rechteck 162" width="80" height="80" rx="7.518" transform="translate(703 138)" fill="#0058ff"/>
        <g id="Gruppe_304" data-name="Gruppe 304">
        <path id="Pfad_118" data-name="Pfad 118" d="M728.274,196.889v-.517c0-6.6,2.928-11.94,11.137-17.91,5.339-3.9,6.945-5.224,6.945-8.553,0-3.272-1.606-5.109-4.764-5.109-3.731,0-5.052,2.3-5.569,5.568H728.1c.516-6.486,4.765-11.939,13.49-11.939,9.7,0,13.03,5.8,13.03,11.423,0,5.51-2.41,8.151-9.356,13.03-4.65,3.273-6.544,5.454-7.175,7.176H756l-1.033,6.831Z" fill="#fff"/>
        </g>
        <rect id="Rechteck_163" data-name="Rechteck 163" width="80" height="80" rx="7.518" transform="translate(703.5 232.5)" fill="none" stroke="#b3b3b3" stroke-miterlimit="10" stroke-width="1"/>
        <g id="Gruppe_305" data-name="Gruppe 305">
        <path id="Pfad_119" data-name="Pfad 119" d="M736.536,260.215c-3.326,2.6-5.061,6.363-5.061,11.133a11.282,11.282,0,0,0,.292,2.458,4.2,4.2,0,0,1,2.6-.723c3.614,0,5.784,2.894,5.784,6.364a6.983,6.983,0,0,1-7.231,7.231c-3.761,0-7.954-2.459-7.954-8.387a22.373,22.373,0,0,1,10.557-18.8Z"/>
        <path id="Pfad_120" data-name="Pfad 120" d="M750.563,286.822c3.326-2.6,5.061-6.364,5.061-11.137a11.467,11.467,0,0,0-.288-2.455,4.206,4.206,0,0,1-2.6.72c-3.614,0-5.784-2.89-5.784-6.36a6.981,6.981,0,0,1,7.231-7.231c3.758,0,7.952,2.458,7.952,8.386a22.377,22.377,0,0,1-10.554,18.8Z"/>
        </g>
        <path id="Pfad_121" data-name="Pfad 121" d="M590.929,55.216l-5.342,5.342-5.341-5.341" fill="none" stroke="#4d4d4d" stroke-linecap="round" stroke-linejoin="round" stroke-width="3"/>
        <rect id="Rechteck_164" data-name="Rechteck 164" width="254.629" height="60.813" rx="11.911" transform="translate(22.451 27.48)" fill="none" stroke="#b3b3b3" stroke-miterlimit="10" stroke-width="1"/>
        <path id="Pfad_122" data-name="Pfad 122" d="M262.116,55.216l-4.3,5.342-4.3-5.341" fill="none" stroke="#4d4d4d" stroke-linecap="round" stroke-linejoin="round" stroke-width="3"/>
        <text id="_9000_more" data-name="+ 9000 more" transform="translate(312.008 391.007)" fill="#ff931e" font-size="26" font-family="AcuminPro-Black, Acumin Pro" font-weight="800"><tspan x="0" y="19">+ 9000 more</tspan></text>
        <text id="APA" transform="translate(310.645 119.075)" fill="#666" font-size="26" font-family="AcuminPro-Semibold, Acumin Pro" font-weight="600"><tspan x="0" y="19">APA</tspan></text>
        <text id="AMA" transform="translate(310.645 175.037)" fill="#666" font-size="26" font-family="AcuminPro-Semibold, Acumin Pro" font-weight="600"><tspan x="0" y="19">AMA</tspan></text>
        <text id="MLA" transform="translate(311.111 226.194)" fill="#666" font-size="26" font-family="AcuminPro-Semibold, Acumin Pro" font-weight="600"><tspan x="0" y="19">MLA</tspan></text>
        <text id="Chicago" transform="translate(311.111 281.705)" fill="#666" font-size="26" font-family="AcuminPro-Semibold, Acumin Pro" font-weight="600"><tspan x="0" y="19">Chicago</tspan></text>
        <text id="IEEE" transform="translate(311.111 337.151)" fill="#666" font-size="26" font-family="AcuminPro-Semibold, Acumin Pro" font-weight="600"><tspan x="0" y="19">IEEE</tspan></text>
        </g>
        </svg>
        